<svg width="49" height="24" viewBox="0 0 49 24" fill="none" xmlns="http://www.w3.org/2000/svg">
<path d="M14.704 6.832V8.64H11.728V18H9.488V8.64H6.512V6.832H14.704ZM21.5224 18.112C20.477 18.112 19.517 17.8667 18.6424 17.376C17.7677 16.8853 17.0744 16.208 16.5624 15.344C16.0504 14.4693 15.7944 13.4827 15.7944 12.384C15.7944 11.296 16.0504 10.32 16.5624 9.456C17.0744 8.58133 17.7677 7.89867 18.6424 7.408C19.517 6.91733 20.477 6.672 21.5224 6.672C22.5784 6.672 23.5384 6.91733 24.4024 7.408C25.277 7.89867 25.965 8.58133 26.4664 9.456C26.9784 10.32 27.2344 11.296 27.2344 12.384C27.2344 13.4827 26.9784 14.4693 26.4664 15.344C25.965 16.208 25.277 16.8853 24.4024 17.376C23.5277 17.8667 22.5677 18.112 21.5224 18.112ZM21.5224 16.112C22.1944 16.112 22.7864 15.9627 23.2984 15.664C23.8104 15.3547 24.2104 14.9173 24.4984 14.352C24.7864 13.7867 24.9304 13.1307 24.9304 12.384C24.9304 11.6373 24.7864 10.9867 24.4984 10.432C24.2104 9.86667 23.8104 9.43467 23.2984 9.136C22.7864 8.83733 22.1944 8.688 21.5224 8.688C20.8504 8.688 20.253 8.83733 19.7304 9.136C19.2184 9.43467 18.8184 9.86667 18.5304 10.432C18.2424 10.9867 18.0984 11.6373 18.0984 12.384C18.0984 13.1307 18.2424 13.7867 18.5304 14.352C18.8184 14.9173 19.2184 15.3547 19.7304 15.664C20.253 15.9627 20.8504 16.112 21.5224 16.112ZM41.0769 6.832V18H38.8369V10.736L35.8449 18H34.1489L31.1409 10.736V18H28.9009V6.832H31.4449L34.9969 15.136L38.5489 6.832H41.0769Z" fill="#D3D3D3"/>
<rect x="1" y="1" width="47" height="22" stroke="#D3D3D3" stroke-width="2"/>
</svg>
