<?xml version="1.0" standalone="no"?>
<!DOCTYPE svg PUBLIC "-//W3C//DTD SVG 20010904//EN"
 "http://www.w3.org/TR/2001/REC-SVG-20010904/DTD/svg10.dtd">
<svg version="1.0" xmlns="http://www.w3.org/2000/svg"
 width="768.000000pt" height="768.000000pt" viewBox="0 0 768.000000 768.000000"
 preserveAspectRatio="xMidYMid meet">
<metadata>
Created by potrace 1.14, written by Peter Selinger 2001-2017
</metadata>
<g transform="translate(0.000000,768.000000) scale(0.100000,-0.100000)"
fill="#000000" stroke="none">
<path d="M320 3840 l0 -3840 3520 0 3520 0 0 3840 0 3840 -3520 0 -3520 0 0
-3840z m746 3200 c24 4 44 4 44 0 0 -3 23 -4 50 0 28 4 50 3 50 0 0 -4 19 -4
43 -1 23 4 59 4 80 0 20 -3 37 -3 37 1 0 4 20 4 45 0 25 -4 48 -4 50 0 2 3 29
3 59 0 31 -3 56 -3 56 0 0 4 20 4 45 0 25 -4 48 -3 51 2 3 4 10 6 15 3 5 -4
30 -6 56 -5 27 0 57 1 68 0 11 0 54 0 95 1 41 0 82 0 90 0 8 -1 26 -1 40 -1
145 4 200 4 200 -1 0 -4 18 -3 39 1 22 4 45 4 52 -1 7 -4 17 -5 22 -2 4 3 81
4 170 4 89 -1 169 -2 177 -1 8 0 29 0 45 -1 29 0 41 0 68 2 6 0 28 0 47 0 19
-1 44 -1 55 -1 92 1 104 1 138 -1 6 0 32 0 57 0 69 1 83 1 115 0 32 0 47 0 68
2 6 1 28 1 47 0 19 -1 42 -1 50 0 8 1 29 0 45 0 28 -2 231 -3 265 -2 14 1 68
0 130 -1 14 0 43 0 65 1 22 1 51 1 65 2 14 0 64 1 113 2 48 1 87 -1 87 -4 0
-4 18 -3 39 1 22 4 45 4 52 -1 7 -4 17 -5 21 -2 11 6 297 7 304 1 2 -3 21 -2
42 2 20 3 54 3 75 -1 20 -3 37 -3 37 1 0 4 20 4 45 0 25 -4 48 -4 50 0 2 3 29
3 59 0 31 -3 56 -3 56 0 0 4 20 4 45 0 25 -4 48 -4 50 0 3 4 23 4 45 0 22 -4
42 -4 45 0 3 4 23 4 45 0 22 -4 40 -4 40 0 0 4 20 4 45 0 25 -4 48 -4 50 0 2
3 29 3 59 0 31 -3 56 -3 56 0 0 4 20 4 45 0 25 -4 48 -3 51 2 3 4 10 6 15 3 5
-4 30 -6 56 -5 27 0 57 1 68 0 11 0 54 0 95 1 41 0 82 0 90 0 8 -1 26 -1 40
-1 145 4 200 4 200 -1 0 -4 18 -3 39 1 22 4 45 4 52 -1 7 -4 17 -5 22 -2 8 5
266 5 380 1 31 -2 57 0 57 3 0 3 19 3 43 0 41 -6 42 -7 48 -48 3 -24 2 -43 -1
-43 -4 0 -4 -17 0 -38 3 -20 3 -49 -1 -63 -3 -15 -3 -33 2 -40 4 -7 5 -17 2
-22 -7 -12 -6 -174 2 -186 3 -6 1 -12 -3 -15 -5 -3 -6 -26 -2 -51 4 -25 4 -45
0 -45 -4 0 -4 -18 0 -40 4 -22 4 -42 0 -45 -4 -3 -4 -23 0 -45 4 -22 4 -42 0
-45 -4 -2 -4 -25 0 -50 4 -25 3 -45 -2 -45 -5 0 -6 -5 -3 -10 4 -6 6 -81 6
-168 -1 -86 -1 -166 -1 -177 0 -11 0 -36 -1 -55 -1 -19 -1 -46 -1 -60 1 -59 2
-116 1 -132 0 -10 0 -52 1 -93 1 -41 -2 -80 -5 -85 -3 -6 -2 -10 3 -10 5 0 6
-20 2 -45 -4 -25 -4 -48 0 -50 4 -3 4 -22 1 -42 -4 -21 -5 -49 -1 -62 3 -13 3
-49 0 -80 -3 -31 -3 -72 0 -91 3 -19 3 -46 0 -59 -3 -14 -3 -45 0 -70 3 -25 3
-67 -1 -93 -3 -27 -2 -48 1 -48 4 0 4 -20 0 -45 -4 -25 -3 -48 2 -51 4 -3 6
-9 3 -14 -3 -5 -6 -29 -5 -52 0 -24 0 -113 0 -198 -1 -85 -1 -161 0 -167 0
-25 0 -49 0 -131 -1 -45 2 -86 5 -91 3 -6 1 -12 -3 -15 -5 -3 -6 -26 -2 -51 4
-25 4 -45 0 -45 -4 0 -4 -18 0 -40 4 -22 4 -42 0 -45 -4 -3 -4 -23 0 -45 4
-22 4 -42 0 -45 -4 -2 -4 -25 0 -50 4 -25 3 -45 -2 -45 -5 0 -6 -5 -3 -10 4
-6 6 -81 6 -168 -1 -86 -1 -166 -1 -177 0 -11 0 -36 -1 -55 -1 -19 -1 -46 -1
-60 1 -59 2 -116 1 -132 0 -10 0 -52 1 -93 1 -41 -2 -80 -5 -85 -3 -6 -2 -10
3 -10 5 0 6 -20 2 -45 -4 -25 -3 -48 2 -51 4 -3 6 -9 3 -14 -3 -5 -6 -29 -5
-52 0 -24 0 -113 0 -198 -1 -85 -1 -161 0 -167 0 -25 0 -49 0 -131 -1 -45 2
-86 5 -91 3 -6 1 -12 -3 -15 -5 -3 -6 -26 -2 -51 4 -25 4 -45 0 -45 -4 0 -4
-18 0 -40 4 -22 4 -42 0 -45 -4 -3 -4 -23 0 -45 4 -22 4 -42 0 -45 -4 -2 -4
-25 0 -50 4 -25 3 -45 -2 -45 -5 0 -6 -5 -3 -10 8 -13 10 -325 2 -337 -3 -5
-2 -15 2 -22 5 -7 5 -30 1 -52 -4 -21 -5 -39 -1 -39 7 0 5 -185 -2 -204 -3 -7
-2 -18 2 -25 5 -7 5 -30 1 -52 -4 -21 -4 -56 -1 -76 4 -21 4 -53 0 -71 -3 -18
-3 -34 1 -37 4 -2 4 -25 0 -50 -4 -25 -4 -48 0 -50 8 -5 0 -64 -10 -70 -6 -4
-45 -6 -95 -5 -21 1 -330 1 -355 0 -8 0 -28 0 -45 1 -29 0 -41 0 -67 -2 -7 0
-29 0 -48 0 -19 1 -44 1 -55 1 -92 -1 -104 -1 -137 1 -7 0 -33 0 -58 0 -69 -1
-83 -1 -115 0 -32 0 -47 0 -67 -2 -7 -1 -29 -1 -48 0 -19 1 -42 1 -50 0 -8 -1
-28 0 -45 0 -16 1 -79 2 -140 2 -60 0 -114 0 -120 1 -5 0 -21 -1 -35 -2 -14 0
-61 -1 -105 -1 -44 0 -84 -1 -90 -1 -5 0 -21 1 -35 1 -30 2 -90 2 -107 2 -7
-1 -19 -1 -25 -2 -7 0 -29 0 -48 0 -19 1 -44 1 -55 1 -92 -1 -104 -1 -137 1
-7 0 -33 0 -58 0 -69 -1 -83 -1 -115 0 -32 0 -47 0 -67 -2 -7 -1 -29 -1 -48 0
-19 1 -42 1 -50 0 -8 -1 -28 0 -45 0 -28 2 -231 3 -265 2 -14 -1 -68 0 -130 1
-14 0 -43 0 -65 -1 -22 -1 -51 -1 -65 -2 -14 0 -64 -1 -113 -2 -48 -1 -87 1
-87 4 0 4 -18 3 -39 -1 -22 -4 -45 -4 -52 1 -7 4 -17 5 -21 2 -11 -6 -297 -7
-304 -1 -2 3 -21 2 -42 -1 -20 -4 -54 -4 -74 -1 -21 4 -38 4 -38 0 0 -4 -20
-4 -45 0 -25 4 -48 4 -50 0 -2 -3 -29 -3 -59 0 -31 3 -56 3 -56 0 0 -4 -20 -4
-45 0 -25 4 -48 4 -50 0 -3 -4 -23 -4 -45 0 -22 4 -42 4 -45 0 -3 -4 -23 -4
-45 0 -22 4 -40 4 -40 0 0 -4 -20 -4 -45 0 -25 4 -48 4 -50 0 -2 -3 -29 -3
-59 0 -31 3 -56 3 -56 0 0 -4 -20 -4 -45 0 -25 4 -48 3 -51 -2 -3 -4 -10 -6
-15 -3 -5 4 -30 6 -56 5 -27 0 -57 -1 -68 0 -11 0 -54 0 -95 -1 -41 0 -82 0
-90 0 -8 1 -26 1 -40 1 -145 -4 -200 -4 -200 1 0 4 -18 3 -39 -1 -22 -4 -45
-4 -52 1 -7 4 -17 5 -22 2 -8 -5 -266 -5 -380 -1 -31 2 -57 0 -57 -3 0 -3 -19
-3 -42 0 -42 6 -43 7 -49 48 -3 24 -2 43 1 43 4 0 4 17 0 38 -3 20 -3 49 1 63
3 15 3 33 -2 40 -4 7 -5 17 -2 22 7 12 6 174 -2 186 -3 6 -1 12 3 15 5 3 6 26
2 51 -4 25 -4 45 0 45 4 0 4 18 0 40 -4 22 -4 42 0 45 4 3 4 23 0 45 -4 22 -4
42 0 45 4 2 4 25 0 50 -4 25 -3 45 2 45 5 0 6 5 3 10 -4 6 -6 81 -6 168 1 86
1 166 1 177 0 11 0 36 1 55 1 19 1 46 1 60 -1 59 -2 116 -1 133 0 9 0 51 -1
92 -1 41 2 80 5 85 3 6 2 10 -3 10 -5 0 -6 20 -2 45 4 25 3 48 -2 51 -4 3 -6
9 -4 13 3 4 5 23 6 42 1 55 2 223 1 239 0 8 0 35 0 60 0 25 0 52 0 60 0 8 0
85 0 170 0 85 0 162 0 170 0 8 0 49 0 90 0 41 0 82 0 90 0 8 0 35 0 60 0 25 0
52 0 60 0 13 0 310 0 335 0 6 0 33 0 60 0 28 0 57 0 65 0 8 0 35 0 60 0 25 0
53 0 63 0 9 0 51 -1 92 -1 41 2 80 5 85 3 6 2 10 -3 10 -5 0 -6 20 -2 45 4 25
3 48 -2 51 -4 3 -6 9 -3 14 3 5 6 29 5 52 0 24 0 113 0 198 1 85 1 161 0 168
0 24 0 48 0 130 1 45 -2 86 -5 91 -3 6 -1 12 3 15 5 3 6 26 2 51 -4 25 -4 45
0 45 4 0 4 18 0 40 -4 22 -4 42 0 45 4 3 4 23 0 45 -4 22 -4 42 0 45 4 2 4 25
0 50 -4 25 -3 45 2 45 5 0 6 5 3 10 -4 6 -6 81 -6 168 1 86 1 166 1 177 0 11
0 36 1 55 1 19 1 46 1 60 -1 59 -2 116 -1 133 0 9 0 51 -1 92 -1 41 2 80 5 85
3 6 2 10 -3 10 -5 0 -6 20 -2 45 4 25 3 48 -2 51 -4 3 -6 9 -4 13 3 4 5 23 6
42 1 55 2 223 1 239 0 8 0 35 0 60 0 25 0 51 0 58 -3 96 -2 304 1 308 3 2 2
25 -2 51 -3 27 -4 56 -2 65 4 19 30 28 50 18 8 -4 33 -4 58 0z"/>
<path d="M2411 5490 c-6 -4 -8 -527 -2 -565 1 -7 158 -10 459 -10 251 1 464
-1 472 -3 14 -3 16 -162 15 -1494 0 -1481 0 -1491 20 -1498 11 -4 24 -4 29 0
4 4 21 4 37 0 16 -5 31 -5 34 -1 2 4 25 5 50 1 25 -4 48 -3 51 1 2 5 15 4 28
-1 12 -4 28 -5 35 0 7 4 28 4 46 0 18 -4 39 -4 46 0 7 5 22 4 35 0 12 -5 25
-6 28 -3 3 3 28 5 56 4 27 -1 57 -1 65 -1 8 0 22 0 30 0 8 0 22 0 30 0 23 0
48 0 69 -1 11 0 22 4 25 10 3 5 6 674 5 1488 -1 813 2 1483 7 1488 5 7 171 10
473 10 305 0 467 3 469 10 2 5 3 136 3 290 l-1 279 -1303 1 c-717 0 -1307 -2
-1311 -5z"/>
</g>
</svg>
